<?xml version="1.0" encoding="UTF-8" standalone="no" ?>
<!DOCTYPE svg PUBLIC "-//W3C//DTD SVG 1.1//EN" "http://www.w3.org/Graphics/SVG/1.1/DTD/svg11.dtd">
<svg xmlns="http://www.w3.org/2000/svg" xmlns:xlink="http://www.w3.org/1999/xlink" version="1.1" width="1080" height="1080" viewBox="0 0 1080 1080" xml:space="preserve">
<desc>Created with Fabric.js 5.2.4</desc>
<defs>
</defs>
<g transform="matrix(1 0 0 1 540 540)" id="ec3725d2-e08a-4db3-8e8d-8cefba3ce2f7"  >
<rect style="stroke: none; stroke-width: 1; stroke-dasharray: none; stroke-linecap: butt; stroke-dashoffset: 0; stroke-linejoin: miter; stroke-miterlimit: 4; fill: rgb(255,255,255); fill-rule: nonzero; opacity: 1; visibility: hidden;" vector-effect="non-scaling-stroke"  x="-540" y="-540" rx="0" ry="0" width="1080" height="1080" />
</g>
<g transform="matrix(1 0 0 1 540 540)" id="414f0f24-e30a-4de3-8718-0a90cb8927fa"  >
</g>
<g transform="matrix(30 0 0 30 540 540)"  >
<g style=""   >
		<g transform="matrix(2.22 0 0 2.22 0 0)"  >
<rect style="stroke: none; stroke-width: 1; stroke-dasharray: none; stroke-linecap: butt; stroke-dashoffset: 0; stroke-linejoin: miter; stroke-miterlimit: 4; fill: rgb(253,238,205); fill-rule: nonzero; opacity: 1;" vector-effect="non-scaling-stroke"  x="-18" y="-18" rx="0" ry="0" width="36" height="36" />
</g>
		<g transform="matrix(2.3 -0.84 0.84 2.3 14.02 11.28)"  >
<rect style="stroke: none; stroke-width: 1; stroke-dasharray: none; stroke-linecap: butt; stroke-dashoffset: 0; stroke-linejoin: miter; stroke-miterlimit: 4; fill: rgb(210,72,88); fill-rule: nonzero; opacity: 1;" vector-effect="non-scaling-stroke"  x="-18" y="-18" rx="36" ry="36" width="36" height="36" />
</g>
		<g transform="matrix(2.22 0 0 2.22 -8.89 3.06)"  >
<path style="stroke: rgb(255,255,255); stroke-width: 1; stroke-dasharray: none; stroke-linecap: round; stroke-dashoffset: 0; stroke-linejoin: miter; stroke-miterlimit: 4; fill: none; fill-rule: nonzero; opacity: 1;" vector-effect="non-scaling-stroke"  transform=" translate(-18, -20.38)" d="M 15 20 C 17 21 19 21 21 20" stroke-linecap="round" />
</g>
		<g transform="matrix(2.22 0 0 2.22 -16.11 -8.89)"  >
<rect style="stroke: none; stroke-width: 1; stroke-dasharray: none; stroke-linecap: butt; stroke-dashoffset: 0; stroke-linejoin: miter; stroke-miterlimit: 4; fill: rgb(255,255,255); fill-rule: nonzero; opacity: 1;" vector-effect="non-scaling-stroke"  x="-0.75" y="-1" rx="1" ry="1" width="1.5" height="2" />
</g>
		<g transform="matrix(2.22 0 0 2.22 -2.78 -8.89)"  >
<rect style="stroke: none; stroke-width: 1; stroke-dasharray: none; stroke-linecap: butt; stroke-dashoffset: 0; stroke-linejoin: miter; stroke-miterlimit: 4; fill: rgb(255,255,255); fill-rule: nonzero; opacity: 1;" vector-effect="non-scaling-stroke"  x="-0.75" y="-1" rx="1" ry="1" width="1.5" height="2" />
</g>
</g>
</g>
</svg>