<?xml version="1.0" encoding="UTF-8" standalone="no" ?>
<!DOCTYPE svg PUBLIC "-//W3C//DTD SVG 1.1//EN" "http://www.w3.org/Graphics/SVG/1.1/DTD/svg11.dtd">
<svg xmlns="http://www.w3.org/2000/svg" xmlns:xlink="http://www.w3.org/1999/xlink" version="1.1" width="1080" height="1080" viewBox="0 0 1080 1080" xml:space="preserve">
<desc>Created with Fabric.js 5.2.4</desc>
<defs>
</defs>
<rect x="0" y="0" width="100%" height="100%" fill="transparent"></rect>
<g transform="matrix(1 0 0 1 540 540)" id="ec3725d2-e08a-4db3-8e8d-8cefba3ce2f7"  >
<rect style="stroke: none; stroke-width: 1; stroke-dasharray: none; stroke-linecap: butt; stroke-dashoffset: 0; stroke-linejoin: miter; stroke-miterlimit: 4; fill: rgb(255,255,255); fill-rule: nonzero; opacity: 1; visibility: hidden;" vector-effect="non-scaling-stroke"  x="-540" y="-540" rx="0" ry="0" width="1080" height="1080" />
</g>
<g transform="matrix(1 0 0 1 540 540)" id="414f0f24-e30a-4de3-8718-0a90cb8927fa"  >
</g>
<g transform="matrix(30 0 0 30 540 540)"  >
<g style=""   >
		<g transform="matrix(2.22 0 0 2.22 0 0)"  >
<rect style="stroke: none; stroke-width: 1; stroke-dasharray: none; stroke-linecap: butt; stroke-dashoffset: 0; stroke-linejoin: miter; stroke-miterlimit: 4; fill: rgb(253,238,205); fill-rule: nonzero; opacity: 1;" vector-effect="non-scaling-stroke"  x="-18" y="-18" rx="0" ry="0" width="36" height="36" />
</g>
		<g transform="matrix(2.3 -0.84 0.84 2.3 14.02 11.28)"  >
<rect style="stroke: none; stroke-width: 1; stroke-dasharray: none; stroke-linecap: butt; stroke-dashoffset: 0; stroke-linejoin: miter; stroke-miterlimit: 4; fill: rgb(210,72,88); fill-rule: nonzero; opacity: 1;" vector-effect="non-scaling-stroke"  x="-18" y="-18" rx="36" ry="36" width="36" height="36" />
</g>
		<g transform="matrix(2.22 0 0 2.22 -8.89 3.06)"  >
<path style="stroke: rgb(255,255,255); stroke-width: 1; stroke-dasharray: none; stroke-linecap: round; stroke-dashoffset: 0; stroke-linejoin: miter; stroke-miterlimit: 4; fill: none; fill-rule: nonzero; opacity: 1;" vector-effect="non-scaling-stroke"  transform=" translate(-18, -20.38)" d="M 15 20 C 17 21 19 21 21 20" stroke-linecap="round" />
</g>
		<g transform="matrix(2.22 0 0 2.22 -16.11 -8.89)"  >
<rect style="stroke: none; stroke-width: 1; stroke-dasharray: none; stroke-linecap: butt; stroke-dashoffset: 0; stroke-linejoin: miter; stroke-miterlimit: 4; fill: rgb(255,255,255); fill-rule: nonzero; opacity: 1;" vector-effect="non-scaling-stroke"  x="-0.75" y="-1" rx="1" ry="1" width="1.5" height="2" />
</g>
		<g transform="matrix(2.22 0 0 2.22 -2.78 -8.89)"  >
<rect style="stroke: none; stroke-width: 1; stroke-dasharray: none; stroke-linecap: butt; stroke-dashoffset: 0; stroke-linejoin: miter; stroke-miterlimit: 4; fill: rgb(255,255,255); fill-rule: nonzero; opacity: 1;" vector-effect="non-scaling-stroke"  x="-0.75" y="-1" rx="1" ry="1" width="1.5" height="2" />
</g>
</g>
</g>
<g transform="matrix(30 0 0 30 540 540)"  >
<g style=""   >
		<g transform="matrix(2.22 0 0 2.22 0 0)"  >
<rect style="stroke: none; stroke-width: 1; stroke-dasharray: none; stroke-linecap: butt; stroke-dashoffset: 0; stroke-linejoin: miter; stroke-miterlimit: 4; fill: rgb(234,176,94); fill-rule: nonzero; opacity: 1;" vector-effect="non-scaling-stroke"  x="-18" y="-18" rx="0" ry="0" width="36" height="36" />
</g>
		<g transform="matrix(1.8 -1.31 1.31 1.8 0 0)"  >
<rect style="stroke: none; stroke-width: 1; stroke-dasharray: none; stroke-linecap: butt; stroke-dashoffset: 0; stroke-linejoin: miter; stroke-miterlimit: 4; fill: rgb(73,56,49); fill-rule: nonzero; opacity: 1;" vector-effect="non-scaling-stroke"  x="-18" y="-18" rx="36" ry="36" width="36" height="36" />
</g>
		<g transform="matrix(2.22 -0.16 0.16 2.22 -8.68 -5.84)"  >
<path style="stroke: rgb(255,255,255); stroke-width: 1; stroke-dasharray: none; stroke-linecap: round; stroke-dashoffset: 0; stroke-linejoin: miter; stroke-miterlimit: 4; fill: none; fill-rule: nonzero; opacity: 1;" vector-effect="non-scaling-stroke"  transform=" translate(-18, -19.38)" d="M 15 19 C 17 20 19 20 21 19" stroke-linecap="round" />
</g>
		<g transform="matrix(2.22 -0.16 0.16 2.22 -25.43 -14.42)"  >
<rect style="stroke: none; stroke-width: 1; stroke-dasharray: none; stroke-linecap: butt; stroke-dashoffset: 0; stroke-linejoin: miter; stroke-miterlimit: 4; fill: rgb(255,255,255); fill-rule: nonzero; opacity: 1;" vector-effect="non-scaling-stroke"  x="-0.75" y="-1" rx="1" ry="1" width="1.5" height="2" />
</g>
		<g transform="matrix(2.22 -0.16 0.16 2.22 5.61 -16.59)"  >
<rect style="stroke: none; stroke-width: 1; stroke-dasharray: none; stroke-linecap: butt; stroke-dashoffset: 0; stroke-linejoin: miter; stroke-miterlimit: 4; fill: rgb(255,255,255); fill-rule: nonzero; opacity: 1;" vector-effect="non-scaling-stroke"  x="-0.75" y="-1" rx="1" ry="1" width="1.5" height="2" />
</g>
</g>
</g>
<g transform="matrix(30 0 0 30 540 540)"  >
<g style=""   >
		<g transform="matrix(2.22 0 0 2.22 0 0)"  >
<rect style="stroke: none; stroke-width: 1; stroke-dasharray: none; stroke-linecap: butt; stroke-dashoffset: 0; stroke-linejoin: miter; stroke-miterlimit: 4; fill: rgb(253,238,205); fill-rule: nonzero; opacity: 1;" vector-effect="non-scaling-stroke"  x="-18" y="-18" rx="0" ry="0" width="36" height="36" />
</g>
		<g transform="matrix(-2.42 1.13 -1.13 -2.42 0.48 -6.09)"  >
<rect style="stroke: none; stroke-width: 1; stroke-dasharray: none; stroke-linecap: butt; stroke-dashoffset: 0; stroke-linejoin: miter; stroke-miterlimit: 4; fill: rgb(210,72,88); fill-rule: nonzero; opacity: 1;" vector-effect="non-scaling-stroke"  x="-18" y="-18" rx="6" ry="6" width="36" height="36" />
</g>
		<g transform="matrix(2.21 -0.19 0.19 2.21 7.32 -1.42)"  >
<path style="stroke: rgb(255,255,255); stroke-width: 1; stroke-dasharray: none; stroke-linecap: round; stroke-dashoffset: 0; stroke-linejoin: miter; stroke-miterlimit: 4; fill: none; fill-rule: nonzero; opacity: 1;" vector-effect="non-scaling-stroke"  transform=" translate(-18, -21.38)" d="M 15 21 C 17 22 19 22 21 21" stroke-linecap="round" />
</g>
		<g transform="matrix(2.21 -0.19 0.19 2.21 -1.11 -14.9)"  >
<rect style="stroke: none; stroke-width: 1; stroke-dasharray: none; stroke-linecap: butt; stroke-dashoffset: 0; stroke-linejoin: miter; stroke-miterlimit: 4; fill: rgb(255,255,255); fill-rule: nonzero; opacity: 1;" vector-effect="non-scaling-stroke"  x="-0.75" y="-1" rx="1" ry="1" width="1.5" height="2" />
</g>
		<g transform="matrix(2.21 -0.19 0.19 2.21 12.17 -16.06)"  >
<rect style="stroke: none; stroke-width: 1; stroke-dasharray: none; stroke-linecap: butt; stroke-dashoffset: 0; stroke-linejoin: miter; stroke-miterlimit: 4; fill: rgb(255,255,255); fill-rule: nonzero; opacity: 1;" vector-effect="non-scaling-stroke"  x="-0.75" y="-1" rx="1" ry="1" width="1.5" height="2" />
</g>
</g>
</g>
<g transform="matrix(NaN NaN NaN NaN 0 0)"  >
<g style=""   >
</g>
</g>
<g transform="matrix(30 0 0 30 540 540)"  >
<g style=""   >
		<g transform="matrix(2.22 0 0 2.22 0 0)"  >
<rect style="stroke: none; stroke-width: 1; stroke-dasharray: none; stroke-linecap: butt; stroke-dashoffset: 0; stroke-linejoin: miter; stroke-miterlimit: 4; fill: rgb(73,56,49); fill-rule: nonzero; opacity: 1;" vector-effect="non-scaling-stroke"  x="-18" y="-18" rx="0" ry="0" width="36" height="36" />
</g>
		<g transform="matrix(1.26 -2.1 2.1 1.26 12.16 9.74)"  >
<rect style="stroke: none; stroke-width: 1; stroke-dasharray: none; stroke-linecap: butt; stroke-dashoffset: 0; stroke-linejoin: miter; stroke-miterlimit: 4; fill: rgb(234,134,118); fill-rule: nonzero; opacity: 1;" vector-effect="non-scaling-stroke"  x="-18" y="-18" rx="36" ry="36" width="36" height="36" />
</g>
		<g transform="matrix(2.22 -0.04 0.04 2.22 -10.96 15.28)"  >
<path style="stroke: none; stroke-width: 1; stroke-dasharray: none; stroke-linecap: butt; stroke-dashoffset: 0; stroke-linejoin: miter; stroke-miterlimit: 4; fill: rgb(0,0,0); fill-rule: nonzero; opacity: 1;" vector-effect="non-scaling-stroke"  transform=" translate(-18, -21.88)" d="M 13 20 C 13 22.071067811865476 15.238576250846034 23.75 18 23.75 C 20.761423749153966 23.75 23 22.071067811865476 23 20" stroke-linecap="round" />
</g>
		<g transform="matrix(2.22 -0.04 0.04 2.22 -20.67 0.17)"  >
<rect style="stroke: none; stroke-width: 1; stroke-dasharray: none; stroke-linecap: butt; stroke-dashoffset: 0; stroke-linejoin: miter; stroke-miterlimit: 4; fill: rgb(0,0,0); fill-rule: nonzero; opacity: 1;" vector-effect="non-scaling-stroke"  x="-0.75" y="-1" rx="1" ry="1" width="1.5" height="2" />
</g>
		<g transform="matrix(2.22 -0.04 0.04 2.22 -2.9 -0.14)"  >
<rect style="stroke: none; stroke-width: 1; stroke-dasharray: none; stroke-linecap: butt; stroke-dashoffset: 0; stroke-linejoin: miter; stroke-miterlimit: 4; fill: rgb(0,0,0); fill-rule: nonzero; opacity: 1;" vector-effect="non-scaling-stroke"  x="-0.75" y="-1" rx="1" ry="1" width="1.5" height="2" />
</g>
</g>
</g>
<g transform="matrix(NaN NaN NaN NaN 0 0)"  >
<g style=""   >
</g>
</g>
<g transform="matrix(30 0 0 30 540 540)"  >
<g style=""   >
		<g transform="matrix(2.22 0 0 2.22 0 0)"  >
<rect style="stroke: none; stroke-width: 1; stroke-dasharray: none; stroke-linecap: butt; stroke-dashoffset: 0; stroke-linejoin: miter; stroke-miterlimit: 4; fill: rgb(73,56,49); fill-rule: nonzero; opacity: 1;" vector-effect="non-scaling-stroke"  x="-18" y="-18" rx="0" ry="0" width="36" height="36" />
</g>
		<g transform="matrix(2.66 -0.19 0.19 2.66 21.87 20.76)"  >
<rect style="stroke: none; stroke-width: 1; stroke-dasharray: none; stroke-linecap: butt; stroke-dashoffset: 0; stroke-linejoin: miter; stroke-miterlimit: 4; fill: rgb(234,134,118); fill-rule: nonzero; opacity: 1;" vector-effect="non-scaling-stroke"  x="-18" y="-18" rx="6" ry="6" width="36" height="36" />
</g>
		<g transform="matrix(2.21 0.23 -0.23 2.21 7.76 13)"  >
<path style="stroke: none; stroke-width: 1; stroke-dasharray: none; stroke-linecap: butt; stroke-dashoffset: 0; stroke-linejoin: miter; stroke-miterlimit: 4; fill: rgb(0,0,0); fill-rule: nonzero; opacity: 1;" vector-effect="non-scaling-stroke"  transform=" translate(-18, -22.88)" d="M 13 21 C 13 23.071067811865476 15.238576250846034 24.75 18 24.75 C 20.761423749153966 24.75 23 23.071067811865476 23 21" stroke-linecap="round" />
</g>
		<g transform="matrix(2.21 0.23 -0.23 2.21 0.19 -5.4)"  >
<rect style="stroke: none; stroke-width: 1; stroke-dasharray: none; stroke-linecap: butt; stroke-dashoffset: 0; stroke-linejoin: miter; stroke-miterlimit: 4; fill: rgb(0,0,0); fill-rule: nonzero; opacity: 1;" vector-effect="non-scaling-stroke"  x="-0.75" y="-1" rx="1" ry="1" width="1.5" height="2" />
</g>
		<g transform="matrix(2.21 0.23 -0.23 2.21 17.87 -3.54)"  >
<rect style="stroke: none; stroke-width: 1; stroke-dasharray: none; stroke-linecap: butt; stroke-dashoffset: 0; stroke-linejoin: miter; stroke-miterlimit: 4; fill: rgb(0,0,0); fill-rule: nonzero; opacity: 1;" vector-effect="non-scaling-stroke"  x="-0.75" y="-1" rx="1" ry="1" width="1.5" height="2" />
</g>
</g>
</g>
<g transform="matrix(NaN NaN NaN NaN 0 0)"  >
<g style=""   >
</g>
</g>
<g transform="matrix(30 0 0 30 540 540)"  >
<g style=""   >
		<g transform="matrix(2.22 0 0 2.22 0 0)"  >
<rect style="stroke: none; stroke-width: 1; stroke-dasharray: none; stroke-linecap: butt; stroke-dashoffset: 0; stroke-linejoin: miter; stroke-miterlimit: 4; fill: rgb(253,238,205); fill-rule: nonzero; opacity: 1;" vector-effect="non-scaling-stroke"  x="-18" y="-18" rx="0" ry="0" width="36" height="36" />
</g>
		<g transform="matrix(2.3 -0.84 0.84 2.3 14.02 11.28)"  >
<rect style="stroke: none; stroke-width: 1; stroke-dasharray: none; stroke-linecap: butt; stroke-dashoffset: 0; stroke-linejoin: miter; stroke-miterlimit: 4; fill: rgb(210,72,88); fill-rule: nonzero; opacity: 1;" vector-effect="non-scaling-stroke"  x="-18" y="-18" rx="36" ry="36" width="36" height="36" />
</g>
		<g transform="matrix(2.22 0 0 2.22 -8.89 -1.39)"  >
<path style="stroke: rgb(255,255,255); stroke-width: 1; stroke-dasharray: none; stroke-linecap: round; stroke-dashoffset: 0; stroke-linejoin: miter; stroke-miterlimit: 4; fill: none; fill-rule: nonzero; opacity: 1;" vector-effect="non-scaling-stroke"  transform=" translate(-18, -20.38)" d="M 15 20 C 17 21 19 21 21 20" stroke-linecap="round" />
</g>
		<g transform="matrix(2.22 0 0 2.22 -16.11 -13.33)"  >
<rect style="stroke: none; stroke-width: 1; stroke-dasharray: none; stroke-linecap: butt; stroke-dashoffset: 0; stroke-linejoin: miter; stroke-miterlimit: 4; fill: rgb(255,255,255); fill-rule: nonzero; opacity: 1;" vector-effect="non-scaling-stroke"  x="-0.75" y="-1" rx="1" ry="1" width="1.5" height="2" />
</g>
		<g transform="matrix(2.22 0 0 2.22 -2.78 -13.33)"  >
<rect style="stroke: none; stroke-width: 1; stroke-dasharray: none; stroke-linecap: butt; stroke-dashoffset: 0; stroke-linejoin: miter; stroke-miterlimit: 4; fill: rgb(255,255,255); fill-rule: nonzero; opacity: 1;" vector-effect="non-scaling-stroke"  x="-0.75" y="-1" rx="1" ry="1" width="1.5" height="2" />
</g>
</g>
</g>
<g transform="matrix(NaN NaN NaN NaN 0 0)"  >
<g style=""   >
</g>
</g>
<g transform="matrix(30 0 0 30 540 540)"  >
<g style=""   >
		<g transform="matrix(2.22 0 0 2.22 0 0)"  >
<rect style="stroke: none; stroke-width: 1; stroke-dasharray: none; stroke-linecap: butt; stroke-dashoffset: 0; stroke-linejoin: miter; stroke-miterlimit: 4; fill: rgb(234,134,118); fill-rule: nonzero; opacity: 1;" vector-effect="non-scaling-stroke"  x="-18" y="-18" rx="0" ry="0" width="36" height="36" />
</g>
		<g transform="matrix(1.6 2.13 -2.13 1.6 13.98 13.43)"  >
<rect style="stroke: none; stroke-width: 1; stroke-dasharray: none; stroke-linecap: butt; stroke-dashoffset: 0; stroke-linejoin: miter; stroke-miterlimit: 4; fill: rgb(253,238,205); fill-rule: nonzero; opacity: 1;" vector-effect="non-scaling-stroke"  x="-18" y="-18" rx="6" ry="6" width="36" height="36" />
</g>
		<g transform="matrix(2.22 0.12 -0.12 2.22 7.39 -1.4)"  >
<path style="stroke: rgb(0,0,0); stroke-width: 1; stroke-dasharray: none; stroke-linecap: round; stroke-dashoffset: 0; stroke-linejoin: miter; stroke-miterlimit: 4; fill: none; fill-rule: nonzero; opacity: 1;" vector-effect="non-scaling-stroke"  transform=" translate(-18, -21.38)" d="M 15 21 C 17 22 19 22 21 21" stroke-linecap="round" />
</g>
		<g transform="matrix(2.22 0.12 -0.12 2.22 -5.74 -16.27)"  >
<rect style="stroke: none; stroke-width: 1; stroke-dasharray: none; stroke-linecap: butt; stroke-dashoffset: 0; stroke-linejoin: miter; stroke-miterlimit: 4; fill: rgb(0,0,0); fill-rule: nonzero; opacity: 1;" vector-effect="non-scaling-stroke"  x="-0.75" y="-1" rx="1" ry="1" width="1.5" height="2" />
</g>
		<g transform="matrix(2.22 0.12 -0.12 2.22 20.89 -14.88)"  >
<rect style="stroke: none; stroke-width: 1; stroke-dasharray: none; stroke-linecap: butt; stroke-dashoffset: 0; stroke-linejoin: miter; stroke-miterlimit: 4; fill: rgb(0,0,0); fill-rule: nonzero; opacity: 1;" vector-effect="non-scaling-stroke"  x="-0.75" y="-1" rx="1" ry="1" width="1.5" height="2" />
</g>
</g>
</g>
<g transform="matrix(NaN NaN NaN NaN 0 0)"  >
<g style=""   >
</g>
</g>
<g transform="matrix(30 0 0 30 540 540)"  >
<g style=""   >
		<g transform="matrix(2.22 0 0 2.22 0 0)"  >
<rect style="stroke: none; stroke-width: 1; stroke-dasharray: none; stroke-linecap: butt; stroke-dashoffset: 0; stroke-linejoin: miter; stroke-miterlimit: 4; fill: rgb(210,72,88); fill-rule: nonzero; opacity: 1;" vector-effect="non-scaling-stroke"  x="-18" y="-18" rx="0" ry="0" width="36" height="36" />
</g>
		<g transform="matrix(-1.65 -1.49 1.49 -1.65 4.44 13.33)"  >
<rect style="stroke: none; stroke-width: 1; stroke-dasharray: none; stroke-linecap: butt; stroke-dashoffset: 0; stroke-linejoin: miter; stroke-miterlimit: 4; fill: rgb(234,176,94); fill-rule: nonzero; opacity: 1;" vector-effect="non-scaling-stroke"  x="-18" y="-18" rx="36" ry="36" width="36" height="36" />
</g>
		<g transform="matrix(2.22 -0.08 0.08 2.22 -13.11 8.61)"  >
<path style="stroke: none; stroke-width: 1; stroke-dasharray: none; stroke-linecap: butt; stroke-dashoffset: 0; stroke-linejoin: miter; stroke-miterlimit: 4; fill: rgb(0,0,0); fill-rule: nonzero; opacity: 1;" vector-effect="non-scaling-stroke"  transform=" translate(-18, -20.88)" d="M 13 19 C 13 21.071067811865476 15.238576250846034 22.75 18 22.75 C 20.761423749153966 22.75 23 21.071067811865476 23 19" stroke-linecap="round" />
</g>
		<g transform="matrix(2.22 -0.08 0.08 2.22 -25.23 -4.03)"  >
<rect style="stroke: none; stroke-width: 1; stroke-dasharray: none; stroke-linecap: butt; stroke-dashoffset: 0; stroke-linejoin: miter; stroke-miterlimit: 4; fill: rgb(0,0,0); fill-rule: nonzero; opacity: 1;" vector-effect="non-scaling-stroke"  x="-0.75" y="-1" rx="1" ry="1" width="1.5" height="2" />
</g>
		<g transform="matrix(2.22 -0.08 0.08 2.22 -3.02 -4.81)"  >
<rect style="stroke: none; stroke-width: 1; stroke-dasharray: none; stroke-linecap: butt; stroke-dashoffset: 0; stroke-linejoin: miter; stroke-miterlimit: 4; fill: rgb(0,0,0); fill-rule: nonzero; opacity: 1;" vector-effect="non-scaling-stroke"  x="-0.75" y="-1" rx="1" ry="1" width="1.5" height="2" />
</g>
</g>
</g>
<g transform="matrix(NaN NaN NaN NaN 0 0)"  >
<g style=""   >
</g>
</g>
<g transform="matrix(30 0 0 30 540 540)"  >
<g style=""   >
		<g transform="matrix(2.22 0 0 2.22 0 0)"  >
<rect style="stroke: none; stroke-width: 1; stroke-dasharray: none; stroke-linecap: butt; stroke-dashoffset: 0; stroke-linejoin: miter; stroke-miterlimit: 4; fill: rgb(234,176,94); fill-rule: nonzero; opacity: 1;" vector-effect="non-scaling-stroke"  x="-18" y="-18" rx="0" ry="0" width="36" height="36" />
</g>
		<g transform="matrix(-2.19 -0.35 0.35 -2.19 -11.11 20)"  >
<rect style="stroke: none; stroke-width: 1; stroke-dasharray: none; stroke-linecap: butt; stroke-dashoffset: 0; stroke-linejoin: miter; stroke-miterlimit: 4; fill: rgb(73,56,49); fill-rule: nonzero; opacity: 1;" vector-effect="non-scaling-stroke"  x="-18" y="-18" rx="36" ry="36" width="36" height="36" />
</g>
		<g transform="matrix(2.19 -0.35 0.35 2.19 -10.11 16.31)"  >
<path style="stroke: none; stroke-width: 1; stroke-dasharray: none; stroke-linecap: butt; stroke-dashoffset: 0; stroke-linejoin: miter; stroke-miterlimit: 4; fill: rgb(255,255,255); fill-rule: nonzero; opacity: 1;" vector-effect="non-scaling-stroke"  transform=" translate(-18, -20.88)" d="M 13 19 C 13 21.071067811865476 15.238576250846034 22.75 18 22.75 C 20.761423749153966 22.75 23 21.071067811865476 23 19" stroke-linecap="round" />
</g>
		<g transform="matrix(2.19 -0.35 0.35 2.19 -28.07 5.94)"  >
<rect style="stroke: none; stroke-width: 1; stroke-dasharray: none; stroke-linecap: butt; stroke-dashoffset: 0; stroke-linejoin: miter; stroke-miterlimit: 4; fill: rgb(255,255,255); fill-rule: nonzero; opacity: 1;" vector-effect="non-scaling-stroke"  x="-0.75" y="-1" rx="1" ry="1" width="1.5" height="2" />
</g>
		<g transform="matrix(2.19 -0.35 0.35 2.19 2.66 1.07)"  >
<rect style="stroke: none; stroke-width: 1; stroke-dasharray: none; stroke-linecap: butt; stroke-dashoffset: 0; stroke-linejoin: miter; stroke-miterlimit: 4; fill: rgb(255,255,255); fill-rule: nonzero; opacity: 1;" vector-effect="non-scaling-stroke"  x="-0.75" y="-1" rx="1" ry="1" width="1.5" height="2" />
</g>
</g>
</g>
<g transform="matrix(NaN NaN NaN NaN 0 0)"  >
<g style=""   >
</g>
</g>
</svg>